<?xml version="1.0" encoding="iso-8859-1"?>
<!-- Generator: Adobe Illustrator 19.0.0, SVG Export Plug-In . SVG Version: 6.00 Build 0)  -->
<svg version="1.1" id="Capa_1" xmlns="http://www.w3.org/2000/svg" xmlns:xlink="http://www.w3.org/1999/xlink" x="0px" y="0px"
	 viewBox="0 0 508 508" style="enable-background:new 0 0 508 508;" xml:space="preserve">
<polygon style="fill:#CDD6E0;" points="467.45,386.9 40.45,386.9 1.05,493.5 506.85,493.5 "/>
<g>
	<path style="fill:#40596B;" d="M1.05,493.5c-2.6,7,2.6,14.5,10.1,14.5h485.7c7.5,0,12.7-7.5,10.1-14.5H1.05z"/>
	<path style="fill:#40596B;" d="M467.45,386.9h-427V115.4c0-1.1,0.9-2,2-2h423.1c1.1,0,2,0.9,2,2v271.5H467.45z"/>
</g>
<rect x="61.95" y="134.9" style="fill:#F2F2F2;" width="384" height="230.5"/>
<polygon style="fill:#ACB3BA;" points="304.95,485.1 202.95,485.1 208.35,449.2 299.55,449.2 "/>
<g>
	<path style="fill:#FF7058;" d="M283.75,115.4c0.3-3,0.5-6,0.5-9.1c0-3.3-0.2-6.5-0.6-9.6l17.3-12.1l-7.4-22.7l-21.2,0.5
		c-3.1-5.4-6.8-10.4-11-15l7-20.1l-19.3-14l-16.9,12.8c-5.6-2.5-11.6-4.5-17.8-5.8L208.15,0h-23.9l-6.1,20.2
		c-6.4,1.3-12.5,3.4-18.3,6l-17-12.7l-19.3,14.1l7.1,20c-4.1,4.6-7.8,9.7-10.9,15.1l-21.2-0.4L91.25,85l17.4,12
		c-0.3,3-0.5,6-0.5,9.1c0,3.3,0.2,6.5,0.5,9.6l-17.4,12.1l7.4,22.7l21.2-0.5c3.1,5.4,6.8,10.4,11,15l-7,20.1l19.3,14l16.9-12.8
		c5.6,2.5,11.6,4.5,17.8,5.8l6.1,20.2h23.9l6.1-20.2c6.4-1.3,12.5-3.4,18.3-6l17,12.7l19.3-14.1l-7.1-20c4.1-4.6,7.8-9.7,10.9-15.1
		l21.2,0.4l7.3-22.7L283.75,115.4z M196.25,166.1c-33,0-59.8-26.8-59.8-59.8s26.8-59.8,59.8-59.8s59.8,26.8,59.8,59.8
		S229.25,166.1,196.25,166.1z"/>
	<path style="fill:#FF7058;" d="M392.45,239.3c0.2-2.2,0.3-4.5,0.3-6.8c0-2.4-0.2-4.8-0.4-7.2l12.9-9l-5.5-16.9l-15.8,0.4
		c-2.3-4-5.1-7.7-8.2-11.2l5.2-14.9l-14.4-10.4l-12.5,9.5c-4.2-1.9-8.6-3.4-13.2-4.3l-4.5-15h-17.7l-4.5,15c-4.7,1-9.3,2.5-13.6,4.5
		l-12.6-9.5l-14.3,10.5l5.3,14.9c-3.1,3.4-5.8,7.2-8.1,11.2l-15.8-0.3l-5.4,16.9l12.9,8.9c-0.2,2.2-0.3,4.5-0.3,6.8
		c0,2.4,0.2,4.8,0.4,7.2l-12.9,9l5.5,16.9l15.8-0.4c2.3,4,5.1,7.7,8.2,11.2l-5.2,14.9l14.4,10.4l12.5-9.5c4.2,1.9,8.6,3.4,13.2,4.3
		l4.5,15h17.7l4.5-15c4.7-1,9.3-2.5,13.6-4.5l12.6,9.5l14.3-10.5l-5.3-14.9c3.1-3.4,5.8-7.2,8.1-11.2l15.8,0.3l5.4-16.9
		L392.45,239.3z M327.55,277c-24.5,0-44.4-19.9-44.4-44.4s19.9-44.4,44.4-44.4s44.4,19.9,44.4,44.4S352.05,277,327.55,277z"/>
</g>
<path style="fill:#FFD15C;" d="M402.35,109c0.2-1.6,0.4-3.2,0.5-4.7l9.4-4.6l-1.9-11.7l-10.4-1.3c-1.1-2.9-2.5-5.6-4.2-8.2l4.9-9.3
	l-8.4-8.3l-9.2,5c-2.6-1.7-5.3-3.1-8.2-4.2l-1.4-10.3l-11.6-1.8l-4.5,9.4c-3.2,0.2-6.3,0.7-9.4,1.6l-7.3-7.5l-10.4,5.4l1.9,10.3
	c-2.4,1.9-4.5,4.1-6.5,6.5l-10.3-1.8l-5.3,10.5l7.6,7.2c-0.4,1.4-0.7,2.9-0.9,4.4c-0.2,1.6-0.4,3.2-0.5,4.7l-9.4,4.6l1.9,11.6
	l10.4,1.4c1.1,2.9,2.5,5.6,4.2,8.1l-4.9,9.3l8.4,8.3l9.2-5c2.6,1.7,5.3,3.1,8.2,4.2l1.4,10.3l11.6,1.8l4.5-9.4
	c3.2-0.2,6.3-0.7,9.4-1.6l7.3,7.5l10.4-5.4l-1.9-10.3c2.4-1.9,4.5-4.1,6.5-6.5l10.3,1.8l5.3-10.5l-7.6-7.2
	C401.85,111.9,402.15,110.5,402.35,109z M388.65,106.8c-2.5,16.1-17.6,27.1-33.7,24.6s-27.1-17.6-24.6-33.6
	c2.5-16.1,17.6-27.1,33.7-24.6C380.15,75.7,391.15,90.7,388.65,106.8z"/>
<g>
</g>
<g>
</g>
<g>
</g>
<g>
</g>
<g>
</g>
<g>
</g>
<g>
</g>
<g>
</g>
<g>
</g>
<g>
</g>
<g>
</g>
<g>
</g>
<g>
</g>
<g>
</g>
<g>
</g>
</svg>
