<?xml version="1.0" encoding="UTF-8"?>
<!DOCTYPE svg PUBLIC "-//W3C//DTD SVG 1.0//EN" "http://www.w3.org/TR/2001/REC-SVG-20010904/DTD/svg10.dtd">
<!-- Creator: CorelDRAW 2018 (64-Bit) -->
<svg xmlns="http://www.w3.org/2000/svg" xml:space="preserve" width="20.3381mm" height="15.8166mm" version="1.0" style="shape-rendering:geometricPrecision; text-rendering:geometricPrecision; image-rendering:optimizeQuality; fill-rule:evenodd; clip-rule:evenodd"
viewBox="0 0 17.86 13.89"
 xmlns:xlink="http://www.w3.org/1999/xlink"
 aria-hidden="true"
 focusable="false"
 data-prefix="far"
 data-icon="comments"
 role="img">
 <defs>
  <style type="text/css">
   <![CDATA[
    .fil0 {fill:#6689FF}
   ]]>
  </style>
 </defs>
 <g id="Layer_x0020_1">
  <metadata id="CorelCorpID_0Corel-Layer"/>
  <g id="_2383938649168">
   <path class="fil0" d="M16.5 10.98c0.85,-0.84 1.36,-1.89 1.36,-3.04 0,-2.48 -2.37,-4.53 -5.46,-4.9 -0.98,-1.79 -3.27,-3.04 -5.95,-3.04 -3.56,0 -6.45,2.22 -6.45,4.96 0,1.15 0.51,2.2 1.36,3.04 -0.47,0.95 -1.16,1.69 -1.17,1.7 -0.2,0.21 -0.25,0.51 -0.14,0.78 0.11,0.26 0.37,0.43 0.66,0.43 1.66,0 3,-0.63 3.88,-1.2 0.29,0.07 0.58,0.11 0.88,0.15 0.97,1.78 3.26,3.03 5.93,3.03 0.64,0 1.27,-0.07 1.85,-0.21 0.88,0.57 2.22,1.2 3.88,1.2 0.29,0 0.54,-0.17 0.66,-0.43 0.11,-0.26 0.06,-0.57 -0.14,-0.78 -0.01,-0.01 -0.7,-0.75 -1.17,-1.7zm-12.18 -2.86l-0.53 0.34c-0.44,0.28 -0.88,0.51 -1.34,0.66 0.08,-0.15 0.17,-0.3 0.25,-0.46l0.48 -0.96 -0.77 -0.76c-0.42,-0.42 -0.92,-1.09 -0.92,-1.98 0,-1.88 2.27,-3.47 4.96,-3.47 2.69,0 4.96,1.59 4.96,3.47 0,1.88 -2.27,3.47 -4.96,3.47 -0.51,0 -1.02,-0.06 -1.52,-0.17l-0.61 -0.14 0 0zm11.13 1.8l-0.77 0.76 0.48 0.96c0.08,0.16 0.16,0.31 0.25,0.46 -0.45,-0.16 -0.9,-0.38 -1.34,-0.66l-0.53 -0.34 -0.62 0.14c-0.5,0.11 -1.01,0.17 -1.52,0.17 -1.67,0 -3.17,-0.62 -4.07,-1.54 3.14,-0.33 5.56,-2.4 5.56,-4.91 0,-0.11 -0.01,-0.21 -0.02,-0.31 2,0.45 3.49,1.76 3.49,3.29 0,0.89 -0.5,1.57 -0.92,1.98z"/>
  </g>
 </g>
</svg>
