<?xml version="1.0" encoding="UTF-8"?>
<!DOCTYPE svg PUBLIC "-//W3C//DTD SVG 1.0//EN" "http://www.w3.org/TR/2001/REC-SVG-20010904/DTD/svg10.dtd">
<!-- Creator: CorelDRAW 2018 (64-Bit) -->
<svg xmlns="http://www.w3.org/2000/svg" xml:space="preserve" width="20.3466mm" height="15.8222mm" version="1.0" style="shape-rendering:geometricPrecision; text-rendering:geometricPrecision; image-rendering:optimizeQuality; fill-rule:evenodd; clip-rule:evenodd"
viewBox="0 0 17.5 13.61"
 xmlns:xlink="http://www.w3.org/1999/xlink"
 aria-hidden="true"
 focusable="false"
 data-prefix="fas"
 data-icon="home"
 role="img">
 <defs>
  <style type="text/css">
   <![CDATA[
    .fil0 {fill:#6689FF}
   ]]>
  </style>
 </defs>
 <g id="Layer_x0020_1">
  <metadata id="CorelCorpID_0Corel-Layer"/>
  <g id="_2384073089520">
   <path class="fil0" d="M8.52 3.53l-5.6 4.61 0 4.98c0,0.27 0.22,0.49 0.49,0.49l3.4 -0.01c0.27,-0 0.48,-0.22 0.48,-0.49 0,0 0,0 0,0l0 -2.91c0,-0.27 0.22,-0.49 0.49,-0.49l1.94 0c0.27,0 0.49,0.22 0.49,0.49l0 2.91c0,0 0,0 0,0 0,0.27 0.22,0.49 0.49,0.49 0,0 0,0 0,0l3.4 0.01c0.27,0 0.49,-0.22 0.49,-0.49l0 -4.98 -5.6 -4.61c-0.07,-0.05 -0.15,-0.08 -0.23,-0.08 -0.08,0 -0.17,0.03 -0.23,0.08l0 0zm8.85 3.14l-2.54 -2.09 0 -4.21c0,-0.2 -0.16,-0.36 -0.36,-0.36l-1.7 0c-0.2,0 -0.36,0.16 -0.36,0.36l0 2.21 -2.72 -2.24c-0.26,-0.21 -0.59,-0.33 -0.93,-0.33 -0.34,0 -0.67,0.12 -0.93,0.33l-7.69 6.33c-0.08,0.07 -0.13,0.17 -0.13,0.28 0,0.08 0.03,0.17 0.08,0.23l0.77 0.94c0.07,0.08 0.17,0.13 0.28,0.13 0.08,0 0.17,-0.03 0.23,-0.08l7.15 -5.89c0.07,-0.05 0.15,-0.08 0.23,-0.08 0.08,0 0.17,0.03 0.23,0.08l7.15 5.89c0.07,0.05 0.15,0.08 0.23,0.08 0.11,0 0.21,-0.05 0.28,-0.13l0.77 -0.94c0.05,-0.07 0.08,-0.15 0.08,-0.23 0,-0.11 -0.05,-0.21 -0.13,-0.28l0 -0z"/>
  </g>
 </g>
</svg>
