<?xml version="1.0" encoding="UTF-8"?>
<!DOCTYPE svg PUBLIC "-//W3C//DTD SVG 1.0//EN" "http://www.w3.org/TR/2001/REC-SVG-20010904/DTD/svg10.dtd">
<!-- Creator: CorelDRAW 2018 (64-Bit) -->
<svg xmlns="http://www.w3.org/2000/svg" xml:space="preserve" width="9.2985mm" height="15.8169mm" version="1.0" style="shape-rendering:geometricPrecision; text-rendering:geometricPrecision; image-rendering:optimizeQuality; fill-rule:evenodd; clip-rule:evenodd"
viewBox="0 0 3.61 6.14"
 xmlns:xlink="http://www.w3.org/1999/xlink">
 <defs>
  <style type="text/css">
   <![CDATA[
    .fil0 {fill:#6689FF}
   ]]>
  </style>
 </defs>
 <g id="Layer_x0020_1">
  <metadata id="CorelCorpID_0Corel-Layer"/>
  <path class="fil0" d="M0.33 6.14l2.94 0c0.28,0 0.33,-0.28 0.33,-0.53l-0 -5.06c-0,-0.41 -0.1,-0.39 -0.33,-0.56l-2.95 0c-0.22,0.15 -0.33,0.15 -0.33,0.53l0 5.06c0,0.45 0.07,0.56 0.33,0.56zm1.47 -1.03c0.16,0 0.3,0.13 0.3,0.3 0,0.16 -0.13,0.3 -0.3,0.3 -0.16,0 -0.3,-0.13 -0.3,-0.3 0,-0.16 0.13,-0.3 0.3,-0.3zm-0.56 -4.63l1.12 0c0.21,0 0.19,-0.22 0,-0.22l-1.12 0c-0.2,0 -0.2,0.22 0,0.22zm-0.85 4.24l2.83 0 -0.02 -3.97 -2.81 0 -0 3.97z"/>
 </g>
</svg>
