<?xml version="1.0" encoding="iso-8859-1"?>
<!-- Generator: Adobe Illustrator 19.0.0, SVG Export Plug-In . SVG Version: 6.00 Build 0)  -->
<svg version="1.1" id="Layer_1" xmlns="http://www.w3.org/2000/svg" xmlns:xlink="http://www.w3.org/1999/xlink" x="0px" y="0px"
	 viewBox="0 0 510.933 510.933" style="enable-background:new 0 0 510.933 510.933;" xml:space="preserve">
<path style="fill:#F3F3F3;" d="M417.504,0H95.371c-19.2,0-35.2,16-35.2,34.133V476.8c0,19.2,16,34.133,34.133,34.133h322.133
	c19.2,0,34.133-16,34.133-34.133V34.133C452.704,16,436.704,0,417.504,0z"/>
<rect x="107.104" y="45.867" style="fill:#8AD7F8;" width="298.667" height="236.8"/>
<path style="fill:#415A6B;" d="M235.104,390.4c0,9.6-8.533,18.133-18.133,18.133h-27.733v28.8c0,9.6-8.533,18.133-18.133,18.133
	s-18.133-8.533-18.133-18.133V409.6h-27.733c-10.667,0-18.133-8.533-18.133-18.133c0-10.667,8.533-18.133,18.133-18.133h27.733
	V345.6c0-10.667,8.533-18.133,18.133-18.133c10.667,0,18.133,8.533,18.133,18.133v27.733h27.733
	C227.638,372.267,235.104,380.8,235.104,390.4z"/>
<circle style="fill:#FFD15C;" cx="337.504" cy="347.733" r="25.6"/>
<circle style="fill:#F3705A;" cx="337.504" cy="434.133" r="25.6"/>
<circle style="fill:#8AD7F8;" cx="380.171" cy="390.4" r="25.6"/>
<circle style="fill:#4EC0AA;" cx="294.838" cy="390.4" r="25.6"/>
<g>
</g>
<g>
</g>
<g>
</g>
<g>
</g>
<g>
</g>
<g>
</g>
<g>
</g>
<g>
</g>
<g>
</g>
<g>
</g>
<g>
</g>
<g>
</g>
<g>
</g>
<g>
</g>
<g>
</g>
</svg>
