<?xml version="1.0" encoding="iso-8859-1"?>
<!-- Generator: Adobe Illustrator 19.0.0, SVG Export Plug-In . SVG Version: 6.00 Build 0)  -->
<svg version="1.1" id="Capa_1" xmlns="http://www.w3.org/2000/svg" xmlns:xlink="http://www.w3.org/1999/xlink" x="0px" y="0px"
	 viewBox="0 0 512.011 512.011" style="enable-background:new 0 0 512.011 512.011;" xml:space="preserve">
<path style="fill:#F2F2F2;" d="M445.595,0H66.427C54.651,0,45.093,9.557,45.093,21.333v354.272h421.835V21.333
	C466.928,9.568,457.381,0,445.595,0"/>
<g>
	<path style="fill:#F1543F;" d="M484.048,368.672v58.603H27.973v-58.603c0-23.712,19.456-41.109,40.981-41.109
		c5.632,0,11.392,1.163,16.917,3.712v-66.539l170.133,104.352l170.144-104.352v66.539
		C453.328,319.061,484.048,338.859,484.048,368.672"/>
	<path style="fill:#F1543F;" d="M426.16,264.768V95.189c0-17.707-12.651-32.96-30.048-36.245
		c-78.048-14.731-202.155-14.731-280.203,0c-17.419,3.285-30.048,18.517-30.048,36.224c0,45.163,0,108.939,0,169.6l170.144,104.32
		L426.16,264.768z"/>
</g>
<path style="fill:#FF7058;" d="M85.861,118.229c0,54.56,0,106.251,0,146.496l0,0l71.36,50.645l98.784,53.717l98.219-53.312
	l71.915-51.04V118.229H85.861z"/>
<rect x="111.803" y="146.016" style="fill:#84DBFF;" width="288.427" height="106.88"/>
<polygon style="fill:#54C0EB;" points="111.803,146.016 111.803,252.917 400.219,146.016 "/>
<g>
	<path style="fill:#334A5E;" d="M60.144,447.979v55.787c0,4.565,3.691,8.245,8.235,8.245h58.208c4.544,0,8.224-3.691,8.224-8.245
		v-55.787H60.144z"/>
	<path style="fill:#334A5E;" d="M377.2,447.979v55.787c0,4.565,3.691,8.245,8.224,8.245h58.208c4.555,0,8.224-3.691,8.224-8.245
		v-55.787H377.2z"/>
</g>
<g>
	<path style="fill:#FFD15C;" d="M92.048,375.584c0,11.787-9.547,21.333-21.333,21.333s-21.333-9.547-21.333-21.333
		c0-11.787,9.547-21.333,21.333-21.333S92.048,363.787,92.048,375.584"/>
	<path style="fill:#FFD15C;" d="M462.64,375.584c0,11.787-9.547,21.333-21.333,21.333c-11.787,0-21.333-9.547-21.333-21.333
		c0-11.787,9.547-21.333,21.333-21.333C453.093,354.251,462.64,363.787,462.64,375.584"/>
</g>
<path style="fill:#40596B;" d="M355.579,321.728l-10.891,95.893H167.323l-10.891-95.893c-0.427-3.936,2.667-7.456,6.613-7.456
	h185.92C352.912,314.272,356.005,317.792,355.579,321.728"/>
<path style="fill:#CDD6E0;" d="M27.931,417.664v46.517c0,7.787,6.325,14.101,14.123,14.101h427.915
	c7.797,0,14.112-6.315,14.112-14.101v-46.517H27.931z"/>
<g>
	<polygon style="fill:#334A5E;" points="325.68,396.064 327.888,376.683 184.144,376.683 186.341,396.064 	"/>
	<polygon style="fill:#334A5E;" points="330.32,355.168 332.517,335.787 179.515,335.787 181.701,355.168 	"/>
</g>
<g>
</g>
<g>
</g>
<g>
</g>
<g>
</g>
<g>
</g>
<g>
</g>
<g>
</g>
<g>
</g>
<g>
</g>
<g>
</g>
<g>
</g>
<g>
</g>
<g>
</g>
<g>
</g>
<g>
</g>
</svg>
