<?xml version="1.0" encoding="UTF-8"?>
<!DOCTYPE svg PUBLIC "-//W3C//DTD SVG 1.0//EN" "http://www.w3.org/TR/2001/REC-SVG-20010904/DTD/svg10.dtd">
<!-- Creator: CorelDRAW 2018 (64-Bit) -->
<svg xmlns="http://www.w3.org/2000/svg" xml:space="preserve" width="185.845mm" height="34.489mm" version="1.0" style="shape-rendering:geometricPrecision; text-rendering:geometricPrecision; image-rendering:optimizeQuality; fill-rule:evenodd; clip-rule:evenodd"
viewBox="0 0 18619.89 3455.47"
 xmlns:xlink="http://www.w3.org/1999/xlink">
 <defs>
  <style type="text/css">
   <![CDATA[
    .fil0 {fill:#FEFEFE}
    .fil7 {fill:#FEFEFE}
    .fil1 {fill:#4CB2E5}
    .fil6 {fill:#FEFEFE;fill-rule:nonzero}
    .fil9 {fill:#18C4DE;fill-rule:nonzero}
    .fil8 {fill:#3E70D4;fill-rule:nonzero}
    .fil5 {fill:#3E70D4;fill-opacity:0.239216}
    .fil4 {fill:#3E70D4;fill-opacity:0.309804}
    .fil3 {fill:#18C4DE;fill-opacity:0.631373}
    .fil2 {fill:#18C4DE;fill-opacity:0.631373}
   ]]>
  </style>
 </defs>
 <g id="Layer_x0020_1">
  <metadata id="CorelCorpID_0Corel-Layer"/>
  <rect class="fil0" transform="matrix(1.83341 1.83341 -1.83341 1.83341 1727.74 -264.946)" width="1086.87" height="1086.87" rx="245.98" ry="245.98"/>
  <rect class="fil1" transform="matrix(1.83341 1.83341 -1.83341 1.83341 1727.74 -264.946)" width="1086.87" height="1086.87" rx="245.98" ry="245.98"/>
  <path class="fil2" d="M2178.72 186.02l508.27 508.27c-22.68,754.17 -244.54,1487.62 -720.56,2006.51 -302.14,136.3 -649.5,233.2 -994.56,263.74l-785.83 -785.83c-248.04,-248.03 -248.04,-653.9 0,-901.96l1090.72 -1090.72c248.03,-248.04 653.93,-248.01 901.96,0z"/>
  <path class="fil3" d="M2686.99 694.29c-22.68,754.18 -244.54,1487.61 -720.56,2006.51 -302.14,136.3 -649.5,233.2 -994.56,263.74l-36.92 -36.92c-56.39,-231.26 -86.5,-472.76 -86.5,-721.36 0,-867.3 363.92,-1649.61 947.3,-2202.62l7.56 0.81 2.2 0.26c4.11,0.5 8.2,1.04 12.3,1.61l3.04 0.44c4.24,0.62 8.49,1.27 12.72,1.97l1.03 0.17 0.45 0.08c4.47,0.75 8.95,1.56 13.41,2.41l3.11 0.59c4.03,0.79 8.04,1.6 12.05,2.47l1.98 0.44c4.22,0.92 8.43,1.9 12.63,2.91l2.72 0.64c4.47,1.09 8.91,2.24 13.37,3.43l1.01 0.27c4.68,1.25 9.34,2.57 13.99,3.95l0.49 0.13c4.67,1.38 9.34,2.82 13.99,4.31l0.78 0.24c4.78,1.53 9.55,3.14 14.29,4.78l0.38 0.14c4.51,1.57 9.01,3.19 13.49,4.87l1.71 0.65c9.26,3.5 18.47,7.19 27.58,11.13l0.96 0.42c4.51,1.95 9.01,3.97 13.48,6.03l0.22 0.11c14.05,6.49 27.9,13.52 41.54,21.08l0.45 0.26c4.37,2.43 8.72,4.91 13.04,7.45l0.63 0.37c8.82,5.19 17.52,10.61 26.13,16.27l0.92 0.6c4.11,2.72 8.2,5.48 12.26,8.3l0.65 0.45c8.58,5.96 17.02,12.16 25.35,18.59l0.42 0.33c4.03,3.11 8.03,6.28 11.99,9.51l0.66 0.54c4,3.27 7.97,6.57 11.89,9.94l0.03 0.02 0.17 0.15 0.39 0.34c3.94,3.38 7.82,6.81 11.69,10.3l0.21 0.18c3.83,3.46 7.6,6.95 11.37,10.52l0.83 0.79c3.83,3.65 7.63,7.35 11.39,11.11l508.27 508.27z"/>
  <path class="fil4" d="M2178.72 186.02l1090.72 1090.72c248.04,248.06 248.04,653.93 0,901.96l-1090.72 1090.72c-248.06,248.04 -653.9,248.04 -901.96,0l-341.81 -341.81c-56.38,-231.25 -86.5,-472.76 -86.5,-721.35 0,-867.33 363.93,-1649.65 947.33,-2202.66 140.12,14.82 276.15,75.6 382.95,182.41z"/>
  <path class="fil5" d="M2686.99 694.29l582.46 582.46c248.03,248.06 248.03,653.93 0,901.96l-1090.72 1090.72c-248.06,248.03 -653.9,248.03 -901.96,0l-304.89 -304.89c345.06,-30.54 692.42,-127.44 994.56,-263.74 476.01,-518.91 697.88,-1252.33 720.56,-2006.51zm-891.24 -690.64l0.03 -0.03 7.53 0.84 -7.56 -0.81zm9.77 1.07c4.11,0.5 8.21,1.03 12.3,1.61 -4.11,-0.57 -8.2,-1.11 -12.3,-1.61zm15.34 2.05c4.24,0.62 8.49,1.27 12.72,1.97 -4.24,-0.7 -8.49,-1.35 -12.72,-1.97zm14.21 2.22c4.47,0.75 8.94,1.56 13.41,2.41 -4.46,-0.85 -8.94,-1.66 -13.41,-2.41zm16.51 3.01c4.03,0.79 8.04,1.61 12.05,2.47 -4.02,-0.86 -8.03,-1.68 -12.05,-2.47zm14.04 2.92c4.22,0.92 8.43,1.89 12.63,2.91 -4.21,-1 -8.42,-1.98 -12.63,-2.91zm15.35 3.55c4.47,1.09 8.92,2.24 13.37,3.43 -4.45,-1.18 -8.9,-2.33 -13.37,-3.43zm14.38 3.7c4.68,1.25 9.34,2.57 13.99,3.95 -4.65,-1.37 -9.31,-2.7 -13.99,-3.95zm14.48 4.08c4.68,1.38 9.34,2.82 13.99,4.31 -4.65,-1.49 -9.32,-2.93 -13.99,-4.31zm14.77 4.55c4.78,1.53 9.55,3.14 14.29,4.78 -4.74,-1.64 -9.51,-3.25 -14.29,-4.78zm14.67 4.92c4.51,1.57 9.01,3.2 13.49,4.87 -4.48,-1.68 -8.98,-3.3 -13.49,-4.87zm15.2 5.52c9.26,3.5 18.47,7.19 27.58,11.13 -9.12,-3.94 -18.32,-7.63 -27.58,-11.13zm28.54 11.55c4.51,1.95 9.01,3.97 13.48,6.03 -4.47,-2.06 -8.97,-4.08 -13.48,-6.03zm13.7 6.14c14.05,6.48 27.9,13.52 41.54,21.08 -13.64,-7.56 -27.49,-14.59 -41.54,-21.08zm41.99 21.34c4.37,2.43 8.73,4.91 13.04,7.45 -4.33,-2.54 -8.68,-5.02 -13.04,-7.45zm13.68 7.82c8.81,5.19 17.52,10.62 26.13,16.27 -8.61,-5.66 -17.31,-11.08 -26.13,-16.27zm27.05 16.87c4.11,2.72 8.21,5.49 12.26,8.3 -4.07,-2.82 -8.16,-5.58 -12.26,-8.3zm12.91 8.75c8.57,5.96 17.02,12.16 25.35,18.59 -8.33,-6.42 -16.77,-12.62 -25.35,-18.59zm25.77 18.92c4.03,3.11 8.03,6.29 11.99,9.51 -3.97,-3.23 -7.97,-6.4 -11.99,-9.51zm12.65 10.05c4,3.27 7.97,6.57 11.89,9.94 -3.93,-3.37 -7.9,-6.67 -11.89,-9.94zm12.48 10.45c3.94,3.38 7.82,6.81 11.69,10.3 -3.87,-3.49 -7.75,-6.92 -11.69,-10.3zm11.9 10.48c3.82,3.46 7.61,6.96 11.37,10.52 -3.77,-3.57 -7.54,-7.06 -11.37,-10.52zm12.2 11.31c3.83,3.66 7.63,7.35 11.39,11.11 -3.76,-3.76 -7.56,-7.46 -11.39,-11.11z"/>
  <path class="fil6" d="M1747.1 669.33c300.31,0 572.24,121.74 769.06,318.57 38.68,38.68 74.48,80.3 107.03,124.46l-876.1 0c-178.01,0 -339.18,72.16 -455.82,188.79 -116.63,116.63 -188.79,277.81 -188.79,455.81 0,178.01 72.16,339.18 188.79,455.82 116.63,116.63 277.81,188.79 455.82,188.79 178.01,0 339.17,-72.16 455.81,-188.79 116.64,-116.63 188.79,-277.81 188.79,-455.82 0,-52.74 -6.35,-104.05 -18.27,-153.13l450.61 0c7.06,50.03 10.69,101.15 10.69,153.13 0,300.31 -121.74,572.25 -318.56,769.06 -196.82,196.82 -468.75,318.57 -769.06,318.57 -300.31,0 -572.24,-121.74 -769.06,-318.57 -196.82,-196.81 -318.57,-468.75 -318.57,-769.06 0,-300.31 121.74,-572.24 318.57,-769.05 196.82,-196.82 468.75,-318.57 769.06,-318.57z"/>
  <path class="fil7" d="M1747.09 669.33l914.94 0 443.44 443.44 -1358.38 0 0 -443.44z"/>
  <rect class="fil7" x="1746.41" y="1603.81" width="1076.9" height="443.44"/>
  <path class="fil7" d="M2391.28 3056.86l0 -1453.05 443.43 0 0 1009.62 -443.43 443.43z"/>
  <g id="_2383895655120">
   <path class="fil8" d="M4819.44 2505.45c272.23,0 489.58,-109.78 641.06,-239.3l0 -645.46 -654.23 0 0 234.91 392.98 0 0 287.61c-94.4,70.25 -226.12,116.35 -371.03,116.35 -313.95,0 -522.5,-232.71 -522.5,-548.85 0,-298.58 215.15,-546.66 498.36,-546.66 195.39,0 311.75,63.67 430.3,164.65l171.25 -204.17c-158.07,-133.92 -322.72,-208.57 -590.56,-208.57 -463.24,0 -792.56,364.44 -792.56,794.74 0,452.26 316.14,794.75 796.94,794.75zm1492.89 0c212.95,0 364.44,-85.62 474.21,-217.35l-155.88 -138.31c-92.21,90.01 -184.42,138.31 -313.95,138.31 -171.25,0 -305.16,-105.38 -333.7,-294.19l851.83 0c2.19,-13.17 4.39,-57.08 4.39,-74.64 0,-333.7 -186.61,-623.49 -555.45,-623.49 -331.51,0 -566.42,272.23 -566.42,603.74 0,362.25 259.06,605.94 594.96,605.94zm-331.51 -687.18c24.15,-180.02 138.31,-305.16 300.77,-305.16 175.63,0 276.63,133.92 294.19,305.16l-594.96 0zm1657.55 687.18c212.95,0 364.44,-85.62 474.21,-217.35l-155.88 -138.31c-92.21,90.01 -184.42,138.31 -313.95,138.31 -171.25,0 -305.16,-105.38 -333.7,-294.19l851.83 0c2.19,-13.17 4.39,-57.08 4.39,-74.64 0,-333.7 -186.61,-623.49 -555.45,-623.49 -331.51,0 -566.42,272.23 -566.42,603.74 0,362.25 259.06,605.94 594.96,605.94zm-331.51 -687.18c24.15,-180.02 138.31,-305.16 300.77,-305.16 175.63,0 276.63,133.92 294.19,305.16l-594.96 0zm1642.18 1016.48c208.57,0 371.03,-50.5 476.41,-155.88 96.6,-96.59 147.09,-241.49 147.09,-436.89l0 -922.07 -265.64 0 0 173.44c-90.01,-107.57 -210.76,-197.59 -406.15,-197.59 -270.03,0 -526.9,201.97 -526.9,544.46 0,344.68 254.67,546.66 526.9,546.66 191,0 311.75,-87.82 408.35,-212.95l0 90.01c0,232.71 -129.53,355.66 -366.63,355.66 -158.07,0 -289.8,-46.11 -412.74,-122.94l-98.8 199.78c149.29,90.02 327.12,138.31 518.12,138.31zm21.95 -671.8c-182.22,0 -329.32,-129.53 -329.32,-320.53 0,-195.39 144.91,-322.73 329.32,-322.73 184.42,0 340.3,129.54 340.3,320.54 0,190.99 -155.88,322.72 -340.3,322.72zm948.42 316.14l265.65 0 0 -1602.66 -265.65 0 0 1602.66zm1143.82 26.35c212.95,0 364.44,-85.62 474.21,-217.35l-155.88 -138.31c-92.21,90.01 -184.42,138.31 -313.95,138.31 -171.25,0 -305.16,-105.38 -333.7,-294.19l851.83 0c2.19,-13.17 4.39,-57.08 4.39,-74.64 0,-333.7 -186.61,-623.49 -555.45,-623.49 -331.51,0 -566.42,272.23 -566.42,603.74 0,362.25 259.06,605.94 594.96,605.94zm-331.51 -687.18c24.15,-180.02 138.31,-305.16 300.77,-305.16 175.63,0 276.63,133.92 294.19,305.16l-594.96 0z"/>
   <path class="fil9" d="M12305.85 2490.08l232.71 0 377.62 -1104.3 377.61 1104.3 232.72 0 535.68 -1547.78 -283.21 0 -366.64 1139.43 -377.61 -1143.81 -228.32 0 -377.62 1143.81 -366.64 -1139.43 -291.98 0 535.68 1547.78zm2410.57 15.37c357.85,0 621.3,-274.43 621.3,-603.75 0,-335.9 -261.26,-605.93 -616.91,-605.93 -355.66,0 -619.11,274.42 -619.11,605.93 0,333.7 261.26,603.75 614.72,603.75zm4.39 -230.53c-206.37,0 -353.46,-171.24 -353.46,-373.22 0,-206.37 136.12,-373.22 349.07,-373.22 208.57,0 355.66,169.04 355.66,373.22 0,204.18 -136.12,373.22 -351.27,373.22zm886.96 204.18l265.64 0 0 -441.28c0,-307.36 162.46,-458.84 395.17,-458.84l15.37 0 0 -281.01c-204.18,-8.79 -338.09,109.77 -410.54,283.21l0 -261.26 -265.64 0 0 1159.18zm906.71 0l265.64 0 0 -331.51 162.46 -169.05 349.07 500.56 307.35 0 -476.41 -687.17 461.04 -472.02 -322.72 0 -480.79 513.73 0 -957.2 -265.64 0 0 1602.66zm1675.1 21.95c241.5,0 430.31,-120.75 430.31,-364.44 0,-212.95 -191,-289.79 -360.05,-342.48 -6.58,-2.19 -15.37,-4.39 -21.95,-6.58 -127.33,-41.72 -239.3,-76.85 -239.3,-155.88 0,-72.45 59.28,-120.75 162.47,-120.75 96.59,0 215.15,41.71 327.11,109.77l105.38 -188.81c-122.94,-81.22 -281.01,-131.72 -425.91,-131.72 -230.52,0 -412.74,133.91 -412.74,353.46 0,226.13 191,296.38 362.25,346.88 6.58,2.19 13.18,4.39 19.76,6.58 127.33,37.32 239.3,68.06 239.3,153.68 0,81.22 -65.87,129.53 -180.02,129.53 -118.56,0 -254.67,-48.3 -379.81,-142.7l-118.56 180.02c144.9,114.17 327.12,173.44 491.77,173.44z"/>
  </g>
 </g>
</svg>
