<?xml version="1.0" encoding="UTF-8"?>
<!DOCTYPE svg PUBLIC "-//W3C//DTD SVG 1.0//EN" "http://www.w3.org/TR/2001/REC-SVG-20010904/DTD/svg10.dtd">
<!-- Creator: CorelDRAW 2018 (64-Bit) -->
<svg xmlns="http://www.w3.org/2000/svg" xml:space="preserve" width="23.4008mm" height="24.2059mm" version="1.0" style="shape-rendering:geometricPrecision; text-rendering:geometricPrecision; image-rendering:optimizeQuality; fill-rule:evenodd; clip-rule:evenodd"
viewBox="0 0 39.81 41.18"
 xmlns:xlink="http://www.w3.org/1999/xlink">
 <defs>
  <style type="text/css">
   <![CDATA[
    .fil9 {fill:#FEFEFE;fill-rule:nonzero}
    .fil6 {fill:#E94B61;fill-rule:nonzero}
    .fil14 {fill:#E62F46;fill-rule:nonzero}
    .fil8 {fill:#FDD939;fill-rule:nonzero}
    .fil12 {fill:#F3CBAD;fill-rule:nonzero}
    .fil0 {fill:#ECB98F;fill-rule:nonzero}
    .fil13 {fill:#EAB68D;fill-rule:nonzero}
    .fil3 {fill:#D8DFE2;fill-rule:nonzero}
    .fil1 {fill:#BCC6CD;fill-rule:nonzero}
    .fil5 {fill:#B6DEEC;fill-rule:nonzero}
    .fil4 {fill:#9AAAB4;fill-rule:nonzero}
    .fil7 {fill:#3FBBC8;fill-rule:nonzero}
    .fil2 {fill:#384860;fill-rule:nonzero}
    .fil11 {fill:#2C4F6D;fill-rule:nonzero}
    .fil10 {fill:#294460;fill-rule:nonzero}
   ]]>
  </style>
 </defs>
 <g id="Layer_x0020_1">
  <metadata id="CorelCorpID_0Corel-Layer"/>
  <path class="fil0" d="M2.48 33.02l0.6 -1.34 0 -3.65c0,-1.22 0.39,-2.41 1.12,-3.4l3.94 -5.36 4.5 -3 1.15 10.19 -0.75 5.68 -3.54 3.85 -7.02 -2.98z"/>
  <path class="fil1" d="M36.72 7.79l-26.27 0c-1.69,0 -3.08,1.39 -3.08,3.08l0 17.98c0,1.69 1.39,3.08 3.08,3.08l26.27 0c1.69,0 3.08,-1.39 3.08,-3.08l0 -17.98c0,-1.69 -1.39,-3.08 -3.08,-3.08z"/>
  <path class="fil2" d="M9.96 10.05l-0.19 0 0 19.62 26.64 0 0 -19.62 -26.45 0z"/>
  <path class="fil3" d="M39.23 19.86c0,0.63 -0.51,1.14 -1.14,1.14 -0.63,0 -1.14,-0.51 -1.14,-1.14 0,-0.63 0.51,-1.14 1.14,-1.14 0.63,0 1.14,0.51 1.14,1.14z"/>
  <path class="fil4" d="M9.67 19.86c0,0.51 -0.41,0.92 -0.92,0.92 -0.51,0 -0.92,-0.41 -0.92,-0.92 0,-0.51 0.41,-0.92 0.92,-0.92 0.51,0 0.92,0.41 0.92,0.92z"/>
  <path class="fil5" d="M13.12 26.68l4.22 0 0 -7.69 -4.22 0 0 7.69z"/>
  <path class="fil6" d="M18.18 26.68l4.22 0 0 -11.71 -4.22 0 0 11.71z"/>
  <path class="fil7" d="M23.24 26.68l4.22 0 0 -15.43 -4.22 0 0 15.43z"/>
  <path class="fil8" d="M28.3 26.68l4.22 0 0 -8.82 -4.22 0 0 8.82z"/>
  <path class="fil0" d="M14.93 25.29l-0 0.04 -0.01 0.11c-0.02,0.17 -0.09,0.33 -0.19,0.47l-0.04 0.05c-0.21,0.27 -0.53,0.46 -0.92,0.5l-3.24 0 -1.22 4.98 0.35 1.9 1.18 -0.24 -3.35 1.42 -2.45 -2.92 1.5 -8.06 2.77 0 3.08 0.51 0.35 0.06 1.77 0.3c0.04,0.04 0.41,0.38 0.41,0.88z"/>
  <path class="fil9" d="M1.58 33.89l0.9 -1.96 7.29 4.07 -1.21 2.25 -6.98 -4.36z"/>
  <path class="fil10" d="M6.47 35.83l-1.25 2.44c-1.87,-1.09 -3.8,-2.17 -5.22,-2.93l1.38 -2.36 5.09 2.84z"/>
  <path class="fil11" d="M9.53 37.54l-1.25 2.55c-0.92,-0.57 -1.98,-1.19 -3.06,-1.82l1.25 -2.44 3.06 1.71z"/>
  <path class="fil12" d="M14.93 25.29l-0 0.04 -0.01 0.07c-0.02,0.16 -0.07,0.32 -0.16,0.46 -0.32,-0.03 -0.66,-0.06 -0.81,-0.11 -1.53,-0.49 -1.3,-1.39 -1.21,-1.62l1.77 0.3c0.04,0.04 0.41,0.38 0.41,0.88z"/>
  <path class="fil13" d="M36.75 36.47c-0.05,0.04 -0.24,0.03 -0.3,0.04l-0.58 0.07c-0.58,0.08 -0.47,0.29 -1.06,0.36 -1.21,0.16 -2.44,0.12 -3.64,0.31 -1.09,0.17 -1.65,-0.56 -2.36,-1.35 -1.17,-1.3 -2.94,-2.47 -3.51,-4.17 -0.23,-0.67 -0.54,-1.42 -0.65,-2.12 -0.09,-0.59 -0.06,-1.15 -0.24,-1.73 -0.17,-0.55 -0.81,-1.58 0.16,-1.55 0.25,0.01 0.66,0.06 0.88,0.19 0.4,0.24 0.74,0.8 0.89,1.23 0.12,0.36 0.07,0.73 0.2,1.08 0.16,0.44 0.48,0.88 0.76,1.25 -0,-1.21 -0.13,-2.21 -0.33,-3.4 -0.13,-0.97 -0.25,-1.94 -0.38,-2.92 -0.18,-1.38 -0.36,-2.77 -0.54,-4.16l-0 -0.03c-0.03,-0.26 -0.09,-0.54 -0.1,-0.8 -0,-0.1 0.04,-0.2 0.1,-0.28l0.05 -0.07 0.01 -0.01 0.13 -0.13c0.4,-0.37 0.99,-0.45 1.47,-0.2 0.05,0.03 0.11,0.05 0.16,0.09l0.01 0.01c0.06,0.04 0.12,0.09 0.16,0.14 0.05,0.06 0.09,0.14 0.1,0.23 0.02,0.15 0.04,0.3 0.06,0.45 0.12,0.95 0.24,1.9 0.36,2.85 0.08,0.65 0.13,1.31 0.25,1.95 0.1,0.58 0.26,1.5 0.48,1.72 -0.03,-0.15 0.05,-0.38 0.02,-0.56 -0.03,-0.19 -0.05,-0.37 -0.08,-0.56 -0.04,-0.33 -0.17,-0.78 -0.09,-1.11 0.15,-0.58 1.05,-0.81 1.55,-0.57 0.52,0.26 0.6,0.96 0.72,1.46 0.04,0.15 0.27,0.68 0.34,0.45 0.13,-0.45 0.1,-1.28 0.26,-1.55 0.31,-0.5 1,-0.57 1.48,-0.3 0.7,0.38 0.71,1.52 0.79,2.21 0.12,-0.12 0.07,-0.63 0.18,-0.79 0.16,-0.23 0.5,-0.38 0.77,-0.39 1.15,-0.08 1.11,1.3 1.29,2.09 0.33,1.41 0.5,2.86 0.53,4.31 0.01,0.69 0.04,1.44 -0.06,2.13 -0.09,0.61 -0.49,1.14 -0.52,1.76 -0.03,0.51 0.13,1.09 0.19,1.6 0.03,0.27 0.06,0.49 0.07,0.58 0.01,0.08 0.05,0.17 -0,0.21z"/>
  <path class="fil12" d="M27.5 20.08c-0.48,0.13 -0.96,-0.29 -1.09,-0.93l-0.1 -0.54 -0.02 -0.14 0.13 -0.13c0.4,-0.37 0.99,-0.45 1.47,-0.2l0.15 0.09 0.01 0.01 0.08 0.43c0.12,0.65 -0.17,1.29 -0.64,1.42z"/>
  <path class="fil9" d="M36.82 35.17l-7.9 1.05 0.53 2.09 7.76 -1.3 -0.39 -1.84z"/>
  <path class="fil11" d="M38.67 39.39l-6.64 1.27 -0.7 -2.99 6.51 -1.18 0.83 2.9z"/>
  <path class="fil10" d="M32.03 40.65l-2.73 0.52 -0.74 -3.01 2.78 -0.5 0.7 2.99z"/>
  <path class="fil14" d="M13.51 15.91c-0.12,0 -0.24,-0.03 -0.35,-0.11 -0.29,-0.19 -0.36,-0.59 -0.17,-0.87l5.66 -8.35c0.11,-0.16 0.27,-0.26 0.46,-0.27 0.19,-0.02 0.37,0.05 0.5,0.18l5.9 5.9 6.59 -10.9c0.18,-0.3 0.57,-0.39 0.86,-0.21 0.3,0.18 0.39,0.57 0.21,0.86l-7 11.59c-0.1,0.17 -0.27,0.28 -0.46,0.3 -0.19,0.02 -0.38,-0.04 -0.52,-0.18l-5.93 -5.93 -5.23 7.72c-0.12,0.18 -0.32,0.28 -0.52,0.28z"/>
  <path class="fil6" d="M15.4 15.55c0,1.04 -0.84,1.89 -1.89,1.89 -1.04,0 -1.89,-0.84 -1.89,-1.89 0,-1.04 0.84,-1.89 1.89,-1.89 1.04,0 1.89,0.84 1.89,1.89z"/>
  <path class="fil6" d="M21.03 7.45c0,1.04 -0.84,1.89 -1.89,1.89 -1.04,0 -1.89,-0.84 -1.89,-1.89 0,-1.04 0.84,-1.89 1.89,-1.89 1.04,0 1.89,0.85 1.89,1.89z"/>
  <path class="fil6" d="M27.32 13.02c0,1.04 -0.84,1.89 -1.89,1.89 -1.04,0 -1.89,-0.84 -1.89,-1.89 0,-1.04 0.84,-1.89 1.89,-1.89 1.04,0 1.89,0.84 1.89,1.89z"/>
  <path class="fil6" d="M34.32 1.89c0,1.04 -0.84,1.89 -1.89,1.89 -1.04,0 -1.89,-0.84 -1.89,-1.89 0,-1.04 0.84,-1.89 1.89,-1.89 1.04,0 1.89,0.84 1.89,1.89z"/>
 </g>
</svg>
