<?xml version="1.0" encoding="UTF-8"?>
<!DOCTYPE svg PUBLIC "-//W3C//DTD SVG 1.0//EN" "http://www.w3.org/TR/2001/REC-SVG-20010904/DTD/svg10.dtd">
<!-- Creator: CorelDRAW 2018 (64-Bit) -->
<svg xmlns="http://www.w3.org/2000/svg" xml:space="preserve" width="27.1978mm" height="16.9982mm" version="1.0" style="shape-rendering:geometricPrecision; text-rendering:geometricPrecision; image-rendering:optimizeQuality; fill-rule:evenodd; clip-rule:evenodd"
viewBox="0 0 50.84 31.78"
 xmlns:xlink="http://www.w3.org/1999/xlink">
 <defs>
  <style type="text/css">
   <![CDATA[
    .fil4 {fill:#CC2530;fill-rule:nonzero}
    .fil1 {fill:#C7E7F4;fill-rule:nonzero}
    .fil2 {fill:#B6DEEC;fill-rule:nonzero}
    .fil0 {fill:#8DC3D3;fill-rule:nonzero}
    .fil3 {fill:#2DB7BC;fill-rule:nonzero}
   ]]>
  </style>
 </defs>
 <g id="Layer_x0020_1">
  <metadata id="CorelCorpID_0Corel-Layer"/>
  <path class="fil0" d="M44.18 24.36l0 0.11 -36.26 0c-4.14,0 -7.53,-3.18 -7.88,-7.23 -0.02,0.23 -0.03,0.45 -0.03,0.69 0,4.37 3.54,7.91 7.92,7.91l36.26 0 0 -0.11c3.77,-0.6 6.66,-3.86 6.66,-7.81 0,-0.22 -0.02,-0.44 -0.03,-0.65 -0.33,3.62 -3.09,6.52 -6.63,7.09z"/>
  <path class="fil1" d="M50.84 16.86c0,0.23 -0.01,0.47 -0.04,0.69l-0.02 0.17c-0.4,3.39 -3.12,6.11 -6.61,6.64l0 0.1 -36.26 0c-4.07,0 -7.42,-2.95 -7.86,-6.76 -0.01,-0.07 -0.02,-0.13 -0.02,-0.19 -0.02,-0.22 -0.04,-0.44 -0.04,-0.66 0,-4.2 3.54,-7.61 7.92,-7.61 0.74,0 1.46,0.11 2.14,0.29 0.06,-4.15 3.58,-7.5 7.91,-7.5 2.5,0 4.73,1.12 6.18,2.87 1.72,-2.93 4.99,-4.91 8.74,-4.91 5.41,0 9.81,4.11 10.03,9.26l0.01 0c4.38,0 7.92,3.41 7.92,7.61z"/>
  <path class="fil2" d="M50.79 18.24c-0.4,3.14 -3.12,5.64 -6.61,6.14l0 0.09 -36.26 0c-4.07,0 -7.42,-2.73 -7.86,-6.24 0.46,-3.49 3.8,-6.2 7.86,-6.2 0.74,0 1.46,0.1 2.14,0.26 0.06,-3.84 3.58,-6.93 7.91,-6.93 2.5,0 4.73,1.04 6.18,2.65 1.72,-2.71 4.99,-4.54 8.74,-4.54 5.41,0 9.81,3.8 10.03,8.56l0.01 0c4.06,0 7.41,2.71 7.86,6.21z"/>
  <path class="fil3" d="M13.42 13.31l0 12 -2.63 0 6.47 6.47 6.47 -6.47 -2.63 0 0 -12 -7.68 0z"/>
  <path class="fil4" d="M37.58 30.68l0 -12 2.63 0 -6.47 -6.47 -6.47 6.47 2.63 0 0 12 7.68 0z"/>
 </g>
</svg>
