<?xml version="1.0" encoding="UTF-8"?>
<!DOCTYPE svg PUBLIC "-//W3C//DTD SVG 1.0//EN" "http://www.w3.org/TR/2001/REC-SVG-20010904/DTD/svg10.dtd">
<!-- Creator: CorelDRAW 2018 (64-Bit) -->
<svg xmlns="http://www.w3.org/2000/svg" xml:space="preserve" width="21.1476mm" height="19.2765mm" version="1.0" style="shape-rendering:geometricPrecision; text-rendering:geometricPrecision; image-rendering:optimizeQuality; fill-rule:evenodd; clip-rule:evenodd"
viewBox="0 0 32.6 29.71"
 xmlns:xlink="http://www.w3.org/1999/xlink">
 <defs>
  <style type="text/css">
   <![CDATA[
    .fil15 {fill:#E94B61;fill-rule:nonzero}
    .fil14 {fill:#E52938;fill-rule:nonzero}
    .fil6 {fill:#E7E7E6;fill-rule:nonzero}
    .fil4 {fill:#56BEC6;fill-rule:nonzero}
    .fil0 {fill:#3FBBC8;fill-rule:nonzero}
    .fil9 {fill:#33B7BC;fill-rule:nonzero}
    .fil1 {fill:#2DB7BC;fill-rule:nonzero}
    .fil5 {fill:#2EB7BB;fill-rule:nonzero}
    .fil7 {fill:#1BA8B1;fill-rule:nonzero}
    .fil2 {fill:#15A7B1;fill-rule:nonzero}
    .fil8 {fill:#17A5A7;fill-rule:nonzero}
    .fil3 {fill:#0FA2A5;fill-rule:nonzero}
    .fil10 {fill:#12949B;fill-rule:nonzero}
    .fil11 {fill:#119091;fill-rule:nonzero}
    .fil13 {fill:#2C4F6D;fill-rule:nonzero}
    .fil12 {fill:#294460;fill-rule:nonzero}
   ]]>
  </style>
 </defs>
 <g id="Layer_x0020_1">
  <metadata id="CorelCorpID_0Corel-Layer"/>
  <path class="fil0" d="M27.84 12.41c0,0.15 0,0.3 -0,0.44 -0.01,0.24 -0.02,0.49 -0.04,0.73 -0.01,0.15 -0.03,0.29 -0.04,0.43 -0.18,1.56 -0.65,3.03 -1.34,4.34 -0.11,0.21 -0.22,0.42 -0.35,0.62 -1.65,2.76 -4.32,4.8 -7.44,5.66 -0.76,0.21 -1.54,0.35 -2.34,0.41 -0.22,0.02 -0.45,0.03 -0.68,0.04 -0.2,0.01 -0.41,0.01 -0.62,-0 -0.23,-0.01 -0.46,-0.02 -0.69,-0.04 -0.16,-0.01 -0.32,-0.03 -0.47,-0.05 -0.64,-0.08 -1.25,-0.2 -1.85,-0.36 -3.19,-0.87 -5.81,-2.95 -7.44,-5.66 -0.12,-0.2 -0.23,-0.41 -0.34,-0.62 -0.36,-0.68 -0.65,-1.4 -0.88,-2.14l-0.02 -0.07c-0.06,-0.21 -0.12,-0.42 -0.17,-0.64 -0.21,-0.86 -0.33,-1.74 -0.35,-2.65 -0.01,-0.21 -0.01,-0.41 0,-0.62 0.01,-0.39 0.04,-0.77 0.08,-1.17l0.01 -0.05c0.02,-0.17 0.04,-0.33 0.07,-0.49 0.2,-1.27 0.59,-2.46 1.14,-3.56 0.1,-0.21 0.21,-0.42 0.33,-0.62 1.64,-2.89 4.38,-5.02 7.59,-5.91 0.75,-0.21 1.54,-0.35 2.33,-0.41 0.22,-0.02 0.45,-0.03 0.68,-0.04 0.21,-0.01 0.41,-0.01 0.62,0 0.23,0.01 0.47,0.02 0.7,0.04 0.16,0.01 0.31,0.03 0.47,0.05 0.64,0.08 1.26,0.2 1.86,0.36 3.28,0.9 5.96,3.07 7.57,5.9 0.12,0.2 0.22,0.41 0.33,0.62l0.04 0.08c0.14,0.29 0.27,0.59 0.39,0.89 0.28,0.71 0.5,1.45 0.65,2.22 0.13,0.67 0.2,1.37 0.22,2.07 0,0.06 0,0.12 0,0.18z"/>
  <path class="fil1" d="M26.84 11.49c-0.82,6.88 -7.05,11.8 -13.93,10.98 -4.4,-0.52 -7.99,-3.26 -9.8,-6.96 -0.34,-1.41 -0.45,-2.91 -0.27,-4.44 0.81,-6.88 7.05,-11.8 13.93,-10.98 4.4,0.52 7.99,3.26 9.8,6.96 0.34,1.41 0.45,2.91 0.26,4.44z"/>
  <path class="fil2" d="M9.76 21.68c-0.17,-0.07 -0.34,-0.14 -0.5,-0.21l0 0c0.17,0.07 0.33,0.14 0.5,0.21z"/>
  <path class="fil2" d="M2.75 12.68c-0,-0.05 -0,-0.09 -0,-0.14 0,-0.06 0,-0.12 0,-0.18 -0,0.11 -0,0.21 -0,0.32z"/>
  <path class="fil3" d="M14.99 22.54l0 -3.57 -6.17 0c0.38,1.07 0.85,2.03 1.4,2.87 -0.15,-0.05 -0.3,-0.11 -0.44,-0.17 -0.17,-0.07 -0.34,-0.14 -0.5,-0.21 -0.43,-0.77 -0.8,-1.6 -1.1,-2.49l-2.55 0c-0.2,-0.2 -0.4,-0.41 -0.59,-0.62l2.94 0c-0.51,-1.7 -0.79,-3.57 -0.82,-5.5l-1.17 0c0.04,-0.21 0.08,-0.42 0.13,-0.62l1.04 0c0.02,-1.08 0.11,-2.14 0.28,-3.16 0.27,-0.44 0.56,-0.86 0.89,-1.26 -0.13,0.54 -0.24,1.1 -0.33,1.68 -0.13,0.88 -0.21,1.8 -0.22,2.74l7.23 0 0 -5.26 -5.93 0c0.21,-0.21 0.42,-0.42 0.65,-0.62l5.28 0 0 -2.74c0.2,-0.05 0.41,-0.09 0.62,-0.12l0 2.86 6.26 0c-0.31,-0.91 -0.68,-1.75 -1.11,-2.5 0.29,0.09 0.58,0.2 0.86,0.31 0.34,0.68 0.64,1.41 0.89,2.18l3.69 0c0.12,0.2 0.22,0.41 0.33,0.62l-3.83 0c0.47,1.63 0.72,3.42 0.75,5.26l3.28 0c-0.04,0.21 -0.08,0.42 -0.13,0.62l-3.15 0c-0.03,1.94 -0.31,3.81 -0.82,5.5l1.11 0c-0.19,0.21 -0.39,0.42 -0.59,0.62l-0.72 0c-0.11,0.32 -0.23,0.63 -0.35,0.94 -0.32,0.25 -0.65,0.48 -1,0.7 0.26,-0.51 0.49,-1.06 0.69,-1.64l-6.17 0 0 3.52c-0.2,0.02 -0.41,0.03 -0.62,0.04zm0.62 -9.69l0 5.5 6.38 0c0.51,-1.66 0.82,-3.52 0.85,-5.5l-7.23 0zm-7.85 0c0.03,1.98 0.33,3.85 0.85,5.5l6.38 0 0 -5.5 -7.23 0zm7.85 -5.88l0 5.26 7.23 0c-0.03,-1.89 -0.3,-3.67 -0.77,-5.26l-6.46 0zm-11.29 5.88l-1.56 0c-0,-0.06 -0,-0.11 -0,-0.17l0 0c-0,-0.11 -0,-0.21 0,-0.32 0,-0.04 0,-0.09 0,-0.13l1.53 0c0,0.21 0.01,0.41 0.03,0.62zm1.36 -5.88l-1.62 0c0.1,-0.21 0.21,-0.42 0.33,-0.62l1.68 0c-0.13,0.2 -0.26,0.41 -0.38,0.62zm15.42 -3.74c-0.44,-0.32 -0.89,-0.6 -1.34,-0.84 -0.99,-1.22 -2.17,-2.05 -3.45,-2.34 0.16,0.01 0.31,0.03 0.47,0.05 0.64,0.08 1.26,0.2 1.86,0.36 0.91,0.66 1.75,1.59 2.47,2.77zm-11.36 -0.38c0.66,-1 1.42,-1.81 2.23,-2.4 0.75,-0.21 1.54,-0.35 2.33,-0.41 -1.22,0.27 -2.34,1.02 -3.3,2.14 -0.43,0.19 -0.86,0.42 -1.27,0.66zm5.87 -1.58c-0.12,-0 -0.24,-0.01 -0.36,-0.01 -0.09,0 -0.17,0 -0.26,0l0 -1.25c0.09,-0 0.19,-0 0.28,-0 0.11,0 0.23,0 0.34,0.01l0 1.25z"/>
  <path class="fil4" d="M6.5 18.35c-1.35,-1.81 -2.03,-3.68 -2.18,-5.49l1.66 0c-0.31,1.75 -0.18,3.62 0.52,5.49zm-0.39 -6.11l-1.82 0c-0.04,-1.88 0.48,-3.68 1.4,-5.26l2.21 0c-0.19,0.68 -0.35,1.38 -0.47,2.1 -0.6,0.98 -1.05,2.04 -1.32,3.16zm2.2 -4.42c0.07,-0.29 0.14,-0.57 0.23,-0.84l0.52 0c-0.26,0.27 -0.51,0.55 -0.75,0.84zm1.4 -1.46l-0.97 0c0.56,-1.66 1.34,-3.09 2.27,-4.17 1.25,-0.56 2.6,-0.89 3.98,-0.92l0 2.36c-1.97,0.45 -3.79,1.41 -5.28,2.74zm-1.63 0l-2.02 0c0.95,-1.42 2.22,-2.63 3.68,-3.51 -0.09,0.13 -0.17,0.27 -0.26,0.4 -0.57,0.93 -1.04,1.98 -1.41,3.11zm14.68 -1.65c-0.38,-0.2 -0.75,-0.38 -1.13,-0.54 -0.16,-0.32 -0.33,-0.63 -0.51,-0.92 -0,-0.01 -0.01,-0.01 -0.01,-0.02 0.57,0.42 1.12,0.91 1.66,1.48zm-2 -0.85c-1.11,-0.35 -2.22,-0.52 -3.31,-0.52 -0.62,0 -1.24,0.05 -1.84,0.15l0 -2.24c1.39,0.05 2.8,0.41 4.15,1.12 0.36,0.44 0.69,0.94 1,1.48z"/>
  <path class="fil5" d="M5.97 12.85l-1.66 0c-0.02,-0.21 -0.03,-0.41 -0.03,-0.62l1.82 0c-0.05,0.2 -0.09,0.41 -0.13,0.62zm1.44 -3.78c0.12,-0.72 0.28,-1.43 0.47,-2.1l-2.21 0c0.12,-0.21 0.25,-0.42 0.38,-0.62l2.02 0c0.37,-1.13 0.84,-2.18 1.41,-3.11 0.08,-0.14 0.17,-0.27 0.26,-0.4 0.41,-0.25 0.83,-0.47 1.27,-0.66 -0.93,1.08 -1.71,2.51 -2.27,4.17l0.97 0c-0.22,0.2 -0.44,0.4 -0.65,0.62l-0.52 0c-0.08,0.28 -0.16,0.56 -0.23,0.84 -0.32,0.4 -0.62,0.82 -0.89,1.26zm14.2 -4.9c-0.29,-0.12 -0.58,-0.22 -0.86,-0.31 -0.31,-0.54 -0.64,-1.03 -1,-1.48 0.45,0.24 0.9,0.52 1.34,0.84 0,0.01 0.01,0.01 0.01,0.02 0.18,0.3 0.35,0.61 0.51,0.92zm-6.63 -0.55l0 -2.36c0.09,-0 0.17,-0 0.26,-0 0.12,0 0.24,0 0.36,0.01l0 2.24c-0.21,0.03 -0.41,0.08 -0.62,0.12z"/>
  <path class="fil6" d="M4.06 18.13c-0.38,-0.76 -0.69,-1.57 -0.91,-2.41 0.04,0.14 0.08,0.28 0.12,0.43l0.02 0.07c0.2,0.66 0.46,1.3 0.76,1.92zm23.7 -4.25c0.01,-0.1 0.02,-0.2 0.03,-0.3 0.02,-0.24 0.03,-0.49 0.04,-0.73l0 0c0,-0.1 0,-0.21 0,-0.31 0,0.1 -0,0.21 -0,0.31 -0.01,0.34 -0.03,0.68 -0.07,1.03zm0.07 -1.65c-0.01,-0.24 -0.02,-0.48 -0.04,-0.72 0.02,0.24 0.03,0.48 0.04,0.72zm-0.04 -0.72c-0,-0 -0,-0 -0,-0.01 0,0 0,0 0,0.01zm-0.91 -3.75c-0.1,-0.24 -0.21,-0.47 -0.32,-0.7l0 0c0.11,0.23 0.22,0.47 0.32,0.7z"/>
  <path class="fil7" d="M15.6 25.08l0 -2.59c1.98,-0.19 3.85,-0.85 5.48,-1.88 -1.18,2.37 -2.88,4.01 -4.8,4.43l0 0c-0.22,0.02 -0.45,0.03 -0.68,0.04zm-0.62 -0l0 0c-0.23,-0.01 -0.46,-0.02 -0.69,-0.04l0 0c-1.05,-0.23 -2.03,-0.83 -2.9,-1.72 -0.42,-0.43 -0.82,-0.93 -1.18,-1.48 0.86,0.3 1.76,0.51 2.7,0.62 0.5,0.06 1,0.09 1.49,0.09 0.2,0 0.39,-0 0.59,-0.01l0 2.54zm3.64 -0.44c0.92,-0.66 1.76,-1.6 2.48,-2.79 0.36,-0.6 0.69,-1.24 0.97,-1.93 0.38,-0.29 0.74,-0.61 1.08,-0.94l2.91 0c-1.65,2.76 -4.32,4.8 -7.44,5.66zm-6.66 -0c-3.19,-0.87 -5.81,-2.95 -7.44,-5.66l1.08 0c0.11,0.11 0.22,0.21 0.33,0.31 0.97,0.89 2.09,1.63 3.33,2.18 0.07,0.13 0.14,0.25 0.22,0.38 0.72,1.19 1.56,2.13 2.48,2.79zm14.45 -6.28l-2.67 0c1.37,-1.53 2.37,-3.4 2.85,-5.5l1.23 0c-0.01,0.24 -0.02,0.49 -0.04,0.73 -0.01,0.1 -0.02,0.2 -0.03,0.3 -0,0.05 -0.01,0.09 -0.02,0.14l0 0c-0.18,1.56 -0.65,3.03 -1.34,4.34l0 0zm-21.39 0l-0.84 0 0 0c-0.04,-0.08 -0.08,-0.15 -0.12,-0.23 -0.31,-0.61 -0.56,-1.25 -0.76,-1.92l-0.02 -0.07c-0.04,-0.14 -0.08,-0.28 -0.12,-0.43 -0.02,-0.07 -0.04,-0.14 -0.05,-0.21l0 0c0.33,0.68 0.72,1.32 1.16,1.92 0.24,0.32 0.49,0.63 0.75,0.93zm22.82 -6.12l-1.11 0c0.04,-0.25 0.08,-0.49 0.11,-0.75 0.18,-1.53 0.08,-3.02 -0.26,-4.43 0.11,0.23 0.22,0.47 0.32,0.7 0.49,1.18 0.8,2.44 0.91,3.74 0,0 0,0 0,0.01 0,0 0,0 0,0 0.02,0.24 0.03,0.48 0.04,0.72l0 0z"/>
  <path class="fil8" d="M14.4 22.56c-0.49,0 -0.99,-0.03 -1.49,-0.09 -0.94,-0.11 -1.84,-0.32 -2.7,-0.62l0 0c0.86,0.3 1.76,0.51 2.7,0.62 0.5,0.06 1,0.09 1.49,0.09 0.2,0 0.39,-0 0.59,-0.01l0 0c-0.2,0.01 -0.39,0.01 -0.59,0.01zm1.21 -0.06l0 -0c1.98,-0.19 3.85,-0.85 5.48,-1.88l0 0c-1.63,1.03 -3.5,1.69 -5.48,1.88zm6.48 -2.58l0 0c0.38,-0.29 0.74,-0.61 1.08,-0.94l0 0c-0.34,0.33 -0.7,0.65 -1.08,0.94zm-16.14 -0.63c-0.11,-0.1 -0.22,-0.21 -0.33,-0.31l0 0c0.11,0.11 0.22,0.21 0.33,0.31zm17.81 -0.93l0 0c1.37,-1.53 2.37,-3.4 2.85,-5.5l0 0c-0.49,2.1 -1.49,3.98 -2.85,5.5zm-18.73 0l0 0c-0.27,-0.3 -0.52,-0.61 -0.75,-0.93 0.24,0.32 0.49,0.63 0.75,0.93zm21.71 -6.12l-0 0c0.04,-0.25 0.08,-0.49 0.11,-0.74 0.18,-1.53 0.08,-3.03 -0.26,-4.44 0,0 0,0 0,0l0 0c0.34,1.41 0.44,2.91 0.26,4.43 -0.03,0.25 -0.07,0.5 -0.11,0.75z"/>
  <path class="fil9" d="M15.32 25.09c-0,0 -0,0 -0,0 0,0 0,0 0,0l0 0zm0 0c0.05,0 0.09,-0 0.14,-0 -0.05,0 -0.09,0 -0.14,0zm0.2 -0c0.02,-0 0.04,-0 0.06,-0 -0.02,0 -0.04,0 -0.06,0zm-0.51 -0c-0.01,-0 -0.02,-0 -0.03,-0l0 0c0.01,0 0.02,0 0.03,0z"/>
  <path class="fil10" d="M15.32 25.09c-0,0 -0,0 -0,0 -0.1,-0 -0.21,-0 -0.31,-0.01 -0.01,-0 -0.02,-0 -0.03,-0l0 -2.54c0.21,-0.01 0.41,-0.02 0.62,-0.04l0 2.59c-0.01,0 -0.02,0 -0.02,0 -0.02,0 -0.04,0 -0.06,0 -0.02,0 -0.04,0 -0.06,0 -0.05,0 -0.09,0 -0.14,0 -0,0 -0,0 -0,0z"/>
  <path class="fil10" d="M16.29 25.05c1.92,-0.42 3.61,-2.06 4.8,-4.43 0.34,-0.22 0.67,-0.45 1,-0.7 -0.28,0.68 -0.61,1.33 -0.97,1.93 -0.72,1.19 -1.56,2.13 -2.48,2.79l0 0c-0.76,0.21 -1.54,0.35 -2.34,0.41z"/>
  <path class="fil10" d="M14.29 25.05c-0.16,-0.01 -0.32,-0.03 -0.47,-0.05 -0.64,-0.08 -1.25,-0.2 -1.85,-0.36l0 0c-0.92,-0.66 -1.76,-1.6 -2.48,-2.79 -0.08,-0.12 -0.15,-0.25 -0.22,-0.38 0.17,0.07 0.33,0.14 0.5,0.21 0.15,0.06 0.29,0.11 0.44,0.17 0.36,0.56 0.76,1.05 1.18,1.48 0.87,0.88 1.85,1.48 2.9,1.72z"/>
  <path class="fil10" d="M26.06 18.98l-2.91 0c0.2,-0.2 0.4,-0.4 0.59,-0.62l2.67 0c-0.11,0.21 -0.22,0.42 -0.35,0.62l0 0z"/>
  <path class="fil10" d="M5.61 18.98l-1.08 0 0 0c-0.12,-0.2 -0.23,-0.41 -0.34,-0.62l0.84 0c0.19,0.21 0.39,0.42 0.59,0.62z"/>
  <path class="fil9" d="M27.83 12.85l0 0c0,-0.15 0.01,-0.3 0,-0.44 0,-0.01 0,-0.02 0,-0.03 0,0.06 0,0.11 0,0.16 0,0.1 -0,0.21 -0,0.31z"/>
  <path class="fil10" d="M27.83 12.85l-1.23 0c0.05,-0.2 0.09,-0.41 0.13,-0.62l1.11 0 0 0c0,0.05 0,0.1 0,0.14 0,0.01 0,0.02 0,0.03 0,0.15 0,0.3 -0,0.44l0 0z"/>
  <path class="fil11" d="M14.99 22.54l0 -0c0.21,-0.01 0.41,-0.02 0.62,-0.04l0 0c-0.2,0.02 -0.41,0.03 -0.62,0.04zm-4.78 -0.7c-0.15,-0.05 -0.3,-0.11 -0.44,-0.17 0.15,0.06 0.29,0.11 0.44,0.17l0 0zm10.88 -1.23l0 -0c0.34,-0.22 0.67,-0.45 1,-0.7l0 0c-0.32,0.25 -0.65,0.48 -1,0.7zm2.07 -1.64l0 0c0.2,-0.2 0.4,-0.4 0.59,-0.62l0 0c-0.19,0.21 -0.39,0.42 -0.59,0.62zm-17.55 0l0 0c-0.2,-0.2 -0.4,-0.4 -0.59,-0.62l0 0c0.19,0.21 0.39,0.42 0.59,0.62zm20.99 -6.12l-0 0c0.05,-0.2 0.09,-0.41 0.13,-0.62l0 0c-0.04,0.21 -0.08,0.42 -0.13,0.62z"/>
  <path class="fil12" d="M4.12 22.1c-0.15,0 -0.29,-0.04 -0.42,-0.13 -0.34,-0.23 -0.43,-0.7 -0.2,-1.04l6.75 -9.96c0.13,-0.18 0.33,-0.3 0.55,-0.33 0.22,-0.02 0.44,0.06 0.6,0.22l7.03 7.03 7.86 -12.99c0.21,-0.35 0.68,-0.47 1.03,-0.25 0.35,0.21 0.47,0.68 0.25,1.03l-8.35 13.81c-0.12,0.2 -0.32,0.33 -0.55,0.36 -0.23,0.03 -0.46,-0.05 -0.62,-0.21l-7.07 -7.07 -6.24 9.21c-0.14,0.21 -0.38,0.33 -0.62,0.33z"/>
  <path class="fil13" d="M6.37 21.67c0,1.24 -1.01,2.25 -2.25,2.25 -1.24,0 -2.25,-1.01 -2.25,-2.25 0,-1.24 1.01,-2.25 2.25,-2.25 1.24,0 2.25,1.01 2.25,2.25z"/>
  <path class="fil13" d="M13.08 12.02c0,1.24 -1.01,2.25 -2.25,2.25 -1.24,0 -2.25,-1.01 -2.25,-2.25 0,-1.24 1.01,-2.25 2.25,-2.25 1.24,0 2.25,1.01 2.25,2.25z"/>
  <path class="fil13" d="M20.58 18.66c0,1.24 -1.01,2.25 -2.25,2.25 -1.24,0 -2.25,-1.01 -2.25,-2.25 0,-1.24 1.01,-2.25 2.25,-2.25 1.24,0 2.25,1.01 2.25,2.25z"/>
  <path class="fil13" d="M28.93 5.38c0,1.24 -1.01,2.25 -2.25,2.25 -1.24,0 -2.25,-1.01 -2.25,-2.25 0,-1.24 1.01,-2.25 2.25,-2.25 1.24,0 2.25,1.01 2.25,2.25z"/>
  <path class="fil12" d="M31.87 27.41l-31.14 0c-0.4,0 -0.73,-0.33 -0.73,-0.73l0 -21.12c0,-0.4 0.33,-0.73 0.73,-0.73 0.4,0 0.73,0.33 0.73,0.73l0 20.4 30.41 0c0.4,0 0.73,0.33 0.73,0.73 0,0.4 -0.33,0.73 -0.73,0.73z"/>
  <path class="fil14" d="M29.95 9.52l-0.02 0.06 -0.02 0.07c-1.28,3.38 -3.43,5.7 -5.92,7.03 -0.17,0.09 -0.33,0.18 -0.5,0.26 0.98,0.33 1.96,0.62 2.95,0.85 -1.39,4.43 -7.76,10.82 -18.21,11.23 0.94,0.6 14.14,3.31 21.95,-8.61 0.83,0.89 1.78,2.14 1.78,2.14 0,0 1.28,-7.03 -1.99,-13.03z"/>
  <path class="fil15" d="M29.9 9.65c-1.28,3.38 -3.43,5.7 -5.92,7.03 -0.17,0.09 -0.33,0.18 -0.5,0.26 0.98,0.33 1.96,0.62 2.95,0.85 -1.39,4.43 -7.76,10.82 -18.21,11.23l0.11 0.06c4.44,0.18 22.25,-0.11 21.61,-19.51l-0.02 0.07z"/>
 </g>
</svg>
