<?xml version="1.0" encoding="UTF-8"?>
<!DOCTYPE svg PUBLIC "-//W3C//DTD SVG 1.0//EN" "http://www.w3.org/TR/2001/REC-SVG-20010904/DTD/svg10.dtd">
<!-- Creator: CorelDRAW 2018 (64-Bit) -->
<svg xmlns="http://www.w3.org/2000/svg" xml:space="preserve" width="27.0709mm" height="22.1567mm" version="1.0" style="shape-rendering:geometricPrecision; text-rendering:geometricPrecision; image-rendering:optimizeQuality; fill-rule:evenodd; clip-rule:evenodd"
viewBox="0 0 50.52 41.35"
 xmlns:xlink="http://www.w3.org/1999/xlink">
 <defs>
  <style type="text/css">
   <![CDATA[
    .fil9 {fill:#FCFBFB;fill-rule:nonzero}
    .fil1 {fill:#F5CE15;fill-rule:nonzero}
    .fil6 {fill:#CDD3DB;fill-rule:nonzero}
    .fil3 {fill:#BCC2CB;fill-rule:nonzero}
    .fil7 {fill:#9BB1BD;fill-rule:nonzero}
    .fil4 {fill:#8094A0;fill-rule:nonzero}
    .fil8 {fill:#50BDC8;fill-rule:nonzero}
    .fil10 {fill:#688AA6;fill-rule:nonzero}
    .fil5 {fill:#2DB7BC;fill-rule:nonzero}
    .fil0 {fill:#384860;fill-rule:nonzero}
    .fil2 {fill:#284E77;fill-rule:nonzero}
   ]]>
  </style>
 </defs>
 <g id="Layer_x0020_1">
  <metadata id="CorelCorpID_0Corel-Layer"/>
  <path class="fil0" d="M24.66 18.29c-0.17,0.12 -0.35,0.22 -0.52,0.31 -1.74,0.87 -3.89,0.36 -5.04,-1.27 -1.27,-1.8 -0.84,-4.29 0.97,-5.56 0.16,-0.11 0.32,-0.2 0.49,-0.29 1.74,-0.89 3.92,-0.39 5.07,1.26 1.27,1.8 0.84,4.29 -0.97,5.56zm5.86 -2.73l-0.22 -2.49 -1.88 -0.15c-0.14,-0.4 -0.32,-0.8 -0.55,-1.18l1.08 -1.53 -1.78 -1.77 -1.52 1.08c-0.38,-0.23 -0.78,-0.41 -1.2,-0.56l-0.15 -1.85 -2.5 -0.21 -0.46 1.79c-0.44,0.07 -0.87,0.19 -1.29,0.35l-1.29 -1.3 -0.06 0.04 -1.99 1.4 0.79 1.66c-0.3,0.34 -0.55,0.71 -0.76,1.1l-1.83 -0.17 -0.64 2.42 1.69 0.77c-0,0.44 0.04,0.89 0.13,1.32l-1.52 1.06 1.06 2.27 1.81 -0.5c0.28,0.34 0.6,0.65 0.93,0.92l-0.49 1.81 2.27 1.05 1.07 -1.56c0.42,0.08 0.86,0.11 1.29,0.1l0.79 1.71 2.42 -0.65 -0.09 -0.96 -0.09 -0.93c0.18,-0.1 0.36,-0.21 0.53,-0.34 0.18,-0.13 0.35,-0.26 0.52,-0.41l1.71 0.81 1.43 -2.06 -1.35 -1.33c0.15,-0.4 0.26,-0.82 0.33,-1.24l1.83 -0.48z"/>
  <path class="fil1" d="M30.4 36.49c-0.17,0.12 -0.35,0.22 -0.52,0.31 -1.74,0.87 -3.89,0.36 -5.04,-1.27 -1.27,-1.8 -0.84,-4.29 0.97,-5.56 0.16,-0.11 0.32,-0.2 0.49,-0.29 1.74,-0.89 3.92,-0.39 5.07,1.26 1.27,1.8 0.84,4.29 -0.97,5.56zm5.86 -2.73l-0.22 -2.49 -1.88 -0.15c-0.14,-0.4 -0.32,-0.8 -0.55,-1.18l1.08 -1.53 -1.78 -1.77 -1.52 1.08c-0.38,-0.23 -0.78,-0.41 -1.2,-0.56l-0.15 -1.85 -2.5 -0.21 -0.46 1.79c-0.44,0.07 -0.87,0.19 -1.29,0.35l-1.29 -1.3 -0.06 0.04 -1.99 1.4 0.79 1.66c-0.29,0.34 -0.55,0.71 -0.76,1.1l-1.83 -0.17 -0.64 2.42 1.69 0.77c-0,0.44 0.04,0.89 0.13,1.32l-1.52 1.06 1.06 2.27 1.81 -0.5c0.28,0.34 0.6,0.65 0.93,0.92l-0.49 1.81 2.27 1.05 1.07 -1.56c0.42,0.08 0.86,0.11 1.29,0.1l0.79 1.71 2.42 -0.65 -0.09 -0.96 -0.09 -0.93c0.18,-0.1 0.36,-0.21 0.53,-0.34 0.18,-0.13 0.35,-0.26 0.52,-0.41l1.71 0.81 1.43 -2.05 -1.35 -1.33c0.15,-0.4 0.26,-0.82 0.33,-1.24l1.83 -0.48z"/>
  <path class="fil2" d="M13 32.91c-0.2,0.14 -0.41,0.26 -0.62,0.36 -2.06,1.03 -4.62,0.43 -5.99,-1.51 -1.51,-2.14 -0.99,-5.1 1.15,-6.61 0.19,-0.13 0.38,-0.24 0.58,-0.34 2.07,-1.06 4.65,-0.46 6.03,1.49 1.51,2.14 0.99,5.1 -1.15,6.61zm6.96 -3.25l-0.27 -2.96 -2.23 -0.18c-0.17,-0.48 -0.39,-0.95 -0.66,-1.4l1.28 -1.82 -2.11 -2.1 -1.8 1.29c-0.45,-0.27 -0.93,-0.49 -1.43,-0.66l-0.18 -2.19 -2.96 -0.25 -0.55 2.13c-0.52,0.08 -1.03,0.22 -1.54,0.41l-1.54 -1.55 -0.07 0.05 -2.36 1.66 0.94 1.98c-0.35,0.41 -0.65,0.85 -0.91,1.31l-2.18 -0.2 -0.76 2.88 2.01 0.91c-0.01,0.53 0.04,1.05 0.15,1.57l-1.81 1.25 1.26 2.69 2.15 -0.59c0.34,0.41 0.71,0.77 1.11,1.09l-0.59 2.15 2.7 1.25 1.27 -1.85c0.5,0.09 1.02,0.13 1.53,0.12l0.94 2.04 2.87 -0.78 -0.11 -1.15 -0.11 -1.1c0.21,-0.12 0.42,-0.26 0.63,-0.4 0.22,-0.15 0.42,-0.31 0.62,-0.48l2.04 0.96 1.7 -2.44 -1.61 -1.58c0.18,-0.48 0.31,-0.98 0.39,-1.48l2.17 -0.57z"/>
  <path class="fil3" d="M28.73 25.71l1.31 -2.41c0.06,-0.11 0.23,-0.13 0.38,-0.06l7.34 3.73c0.2,0.1 0.31,0.29 0.24,0.42l-1.53 2.8c-0.07,0.13 -0.29,0.14 -0.48,0.02l-7.11 -4.15c-0.15,-0.09 -0.22,-0.24 -0.16,-0.35z"/>
  <path class="fil4" d="M35.29 29.9l1.83 -3.35c0.06,-0.12 0.28,-0.12 0.49,-0l2.13 1.16c0.21,0.11 0.33,0.3 0.26,0.42l-1.83 3.35c-0.06,0.12 -0.28,0.12 -0.49,0l-2.13 -1.16c-0.21,-0.11 -0.33,-0.3 -0.26,-0.42z"/>
  <path class="fil5" d="M35.64 30.38l2.07 -3.8c0.09,-0.17 0.46,-0.16 0.82,0.03l11.3 5.78c0.48,0.25 0.78,0.61 0.67,0.81l-2.41 4.42c-0.11,0.2 -0.58,0.14 -1.05,-0.12l-10.94 -6.45c-0.35,-0.2 -0.56,-0.5 -0.47,-0.67z"/>
  <path class="fil4" d="M32.74 24.43l-1.61 2.95 0.34 0.2 2.61 1.52 0.34 0.2 1.71 -3.15 -3.4 -1.72z"/>
  <path class="fil5" d="M31.2 28.07l2.16 -3.96c0.07,-0.14 0.29,-0.16 0.48,-0.06l1.96 1.07c0.19,0.1 0.29,0.3 0.21,0.44l-2.16 3.96c-0.07,0.14 -0.29,0.16 -0.48,0.06l-1.96 -1.07c-0.19,-0.1 -0.29,-0.3 -0.21,-0.44z"/>
  <path class="fil6" d="M35.8 28.97l-0.92 -0.51 0.94 -1.73 0.92 0.51 -0.94 1.73z"/>
  <path class="fil7" d="M36.26 29.22l-0.46 -0.25 0.94 -1.73 0.46 0.25 -0.94 1.73z"/>
  <path class="fil8" d="M48.9 36.14l-12.64 -6.92 0.94 -1.73 12.64 6.92 -0.94 1.73z"/>
  <path class="fil7" d="M34.88 28.46l-0.35 -0.19 0.94 -1.73 0.35 0.19 -0.94 1.73z"/>
  <path class="fil6" d="M31.54 26.63l-1.85 -1.01c0.38,-0.54 0.72,-1.11 1.03,-1.69l1.77 0.97 -0.94 1.73z"/>
  <path class="fil7" d="M31.88 26.82l-0.35 -0.19 0.94 -1.73 0.35 0.19 -0.94 1.73z"/>
  <path class="fil8" d="M34.53 28.27l-2.65 -1.45 0.94 -1.73 2.65 1.45 -0.94 1.73z"/>
  <path class="fil3" d="M21.73 29.16c-7.1,3 -15.28,-0.33 -18.28,-7.42 -3,-7.1 0.33,-15.28 7.42,-18.28 7.1,-3 15.28,0.33 18.28,7.42 3,7.1 -0.33,15.28 -7.42,18.28zm0.91 2.17c8.29,-3.5 12.18,-13.07 8.68,-21.36 -3.5,-8.29 -13.07,-12.18 -21.36,-8.68 -8.29,3.5 -12.18,13.07 -8.68,21.36 3.5,8.29 13.07,12.18 21.36,8.68z"/>
  <path class="fil4" d="M21.76 30.04c-7.33,3.09 -15.78,-0.35 -18.88,-7.69 -3.1,-7.34 0.33,-15.8 7.65,-18.89 7.33,-3.09 15.78,0.35 18.88,7.69 3.1,7.34 -0.33,15.8 -7.65,18.89zm-0.2 -1.32c6.86,-2.9 10.07,-10.8 7.17,-17.66 -2.9,-6.86 -10.81,-10.07 -17.66,-7.17 -6.86,2.9 -10.07,10.8 -7.17,17.66 2.9,6.86 10.81,10.07 17.66,7.17z"/>
  <path class="fil9" d="M15.01 29.27c-0.38,-0.02 -0.73,-0.07 -1.04,-0.13 -2.56,-0.52 -4.93,-1.86 -6.78,-3.71 0.11,-0.1 0.23,-0.19 0.36,-0.28 0.19,-0.13 0.38,-0.24 0.58,-0.34 0.68,-0.35 1.42,-0.52 2.15,-0.52 1.49,0 2.95,0.7 3.87,2.01 0.63,0.9 0.91,1.94 0.86,2.97zm3.89 -2.63l-1.44 -0.11c-0.17,-0.48 -0.39,-0.95 -0.66,-1.4l0.51 -0.72c0.62,0.47 1.15,1.04 1.44,1.79 0.06,0.16 0.11,0.31 0.14,0.45zm-11.38 -4.71l-1.54 -1.55 -0.07 0.05 -1.48 1.04c-0.62,-1.38 -0.99,-2.86 -1.05,-4.4 -0.12,-3.01 0.3,-5.95 2.16,-8.38 0.84,-1.1 1.87,-2.06 3.02,-2.83 0.56,-0.37 1.15,-0.7 1.77,-0.97 0.46,-0.21 1.43,-0.31 1.79,-0.63 -1.86,1.61 -3.53,3.53 -4.38,5.84 -1.08,2.92 -0.6,6.28 1.02,8.9 0.21,0.34 0.44,0.66 0.69,0.98l-0.39 1.53c-0.52,0.08 -1.03,0.22 -1.54,0.41z"/>
  <path class="fil10" d="M15.45 29.28c-0.15,0 -0.29,-0 -0.44,-0.01 0.05,-1.02 -0.23,-2.07 -0.86,-2.97 -0.92,-1.31 -2.39,-2.01 -3.87,-2.01 -0.73,0 -1.47,0.17 -2.15,0.52 -0.2,0.1 -0.39,0.21 -0.58,0.34 -0.12,0.09 -0.24,0.18 -0.36,0.28 -0.24,-0.24 -0.46,-0.48 -0.68,-0.73 -0.84,-0.97 -1.54,-2.06 -2.07,-3.23l1.48 -1.04 0.07 -0.05 1.54 1.55c0.5,-0.19 1.02,-0.33 1.54,-0.41l0.39 -1.53c0.7,0.89 1.55,1.66 2.52,2.24 1.45,0.88 3.17,0.87 4.6,1.69 0.26,0.15 0.51,0.31 0.75,0.49l-0.51 0.72c0.27,0.45 0.49,0.92 0.66,1.4l1.44 0.11c0.48,2.02 -1.61,2.64 -3.46,2.64z"/>
 </g>
</svg>
